<svg width="24" height="24" viewBox="0 0 24 24" fill="none" xmlns="http://www.w3.org/2000/svg">
<g clip-path="url(#clip0_209_1676)">
<path d="M17.4844 19.577L12.7624 16.9613C14.5174 15.5805 14.994 12.867 14.994 11.3456V8.17876C14.994 6.08176 12.2078 3.74626 9.40915 3.74626C6.61127 3.74626 3.75115 6.08214 3.75115 8.17876V11.3456C3.75115 12.729 4.3365 15.5277 6.10952 16.9493L1.26562 19.5769C1.26562 19.5769 0 20.1409 0 20.844V22.7445C0 23.4439 0.567727 24.0117 1.26562 24.0117H17.4844C18.183 24.0117 18.7507 23.4439 18.7507 22.7445V20.8441C18.7507 20.0986 17.4844 19.5769 17.4844 19.5769L17.4844 19.577ZM17.2508 22.5117H1.50005V21.1707C1.60767 21.0924 1.75805 21.0016 1.87655 20.9472C1.91177 20.9311 1.94702 20.9142 1.9804 20.8951L6.82465 18.2678C7.2664 18.0282 7.55927 17.5838 7.6039 17.0836C7.64852 16.5833 7.43965 16.0932 7.04815 15.779C5.7904 14.7706 5.25152 12.5371 5.25152 11.3457V8.17883C5.25152 7.10146 7.28252 5.24633 9.40952 5.24633C11.5759 5.24633 13.4944 7.07598 13.4944 8.17883V11.3457C13.4944 12.5206 13.1295 14.7638 11.8354 15.782C11.6403 15.9356 11.4864 16.1351 11.3873 16.3628C11.2882 16.5905 11.2471 16.8391 11.2676 17.0866C11.2885 17.3339 11.3704 17.5722 11.5058 17.7801C11.6413 17.9881 11.8261 18.1593 12.0439 18.2784L16.7659 20.894C16.8075 20.9168 16.8604 20.9416 16.9043 20.9607C17.0149 21.0076 17.151 21.086 17.2508 21.155V22.5117ZM22.7337 15.8423L17.9415 13.2267C19.6965 11.8459 20.2436 9.13244 20.2436 7.61104V4.44416C20.2436 2.34716 17.3873 -0.0119629 14.5886 -0.0119629C12.7699 -0.0119629 10.9103 0.976912 9.82802 2.24331C10.4453 2.28154 11.1259 2.28231 11.7139 2.46981C12.504 1.85444 13.5038 1.48844 14.5887 1.48844C16.755 1.48844 18.7436 3.34129 18.7436 4.44456V7.61144C18.7436 8.78629 18.3086 11.0296 17.0145 12.0477C16.8194 12.2013 16.6655 12.4009 16.5664 12.6285C16.4673 12.8562 16.4262 13.1049 16.4468 13.3523C16.4677 13.5996 16.5495 13.8379 16.6849 14.0459C16.8204 14.2538 17.0053 14.425 17.223 14.5441L22.0152 17.1597C22.0568 17.1826 22.1097 17.2073 22.1535 17.2264C22.2642 17.2733 22.4003 17.3517 22.5 17.4207V18.7546H19.4723C19.9294 19.0996 20.0678 19.5931 20.2452 20.2546H22.734C23.4326 20.2546 24.0004 19.6868 24.0004 18.9874V17.1102C24 16.3639 22.7336 15.8423 22.7336 15.8423L22.7337 15.8423Z" fill="white"/>
</g>
<defs>
<clipPath id="clip0_209_1676">
<rect width="24" height="24" fill="white"/>
</clipPath>
</defs>
</svg>
