<svg width="24" height="24" viewBox="0 0 24 24" fill="none" xmlns="http://www.w3.org/2000/svg">
<path d="M16.9535 9.70588H15.1765V4.11765C15.1765 3.50294 14.6735 3 14.0588 3H9.58824C8.97353 3 8.47059 3.50294 8.47059 4.11765V9.70588H6.69353C5.69882 9.70588 5.19588 10.9129 5.9 11.6171L11.03 16.7471C11.4659 17.1829 12.17 17.1829 12.6059 16.7471L17.7359 11.6171C18.44 10.9129 17.9482 9.70588 16.9535 9.70588ZM4 20.8824C4 21.4971 4.50294 22 5.11765 22H18.5294C19.1441 22 19.6471 21.4971 19.6471 20.8824C19.6471 20.2676 19.1441 19.7647 18.5294 19.7647H5.11765C4.50294 19.7647 4 20.2676 4 20.8824Z" fill="#4ECB71"/>
</svg>
