<svg width="28" height="28" viewBox="0 0 28 28" fill="none" xmlns="http://www.w3.org/2000/svg">
<g clip-path="url(#clip0_64_5807)">
<rect width="28" height="28" rx="4.66667" fill="#0D99FF"/>
<path d="M22.1667 16.5C22.5645 16.5 22.946 16.658 23.2273 16.9393C23.5087 17.2206 23.6667 17.6022 23.6667 18V22C23.6667 22.663 23.4033 23.2989 22.9345 23.7678C22.4656 24.2366 21.8297 24.5 21.1667 24.5H7.16669C6.50365 24.5 5.86776 24.2366 5.39892 23.7678C4.93008 23.2989 4.66669 22.663 4.66669 22V18C4.66669 17.6022 4.82472 17.2206 5.10603 16.9393C5.38733 16.658 5.76886 16.5 6.16669 16.5C6.56451 16.5 6.94604 16.658 7.22735 16.9393C7.50865 17.2206 7.66669 17.6022 7.66669 18V21.5H20.6667V18C20.6667 17.6022 20.8247 17.2206 21.106 16.9393C21.3873 16.658 21.7689 16.5 22.1667 16.5ZM14.1667 3.5C14.5645 3.5 14.946 3.65804 15.2273 3.93934C15.5087 4.22064 15.6667 4.60218 15.6667 5V14.036L17.3487 12.354C17.6324 12.0855 18.0096 11.9383 18.4002 11.9436C18.7908 11.949 19.1638 12.1065 19.4401 12.3826C19.7164 12.6587 19.874 13.0317 19.8796 13.4223C19.8851 13.8129 19.738 14.1902 19.4697 14.474L15.4037 18.541C15.0755 18.8689 14.6306 19.0531 14.1667 19.0531C13.7028 19.0531 13.2578 18.8689 12.9297 18.541L8.86369 14.475C8.59045 14.1921 8.43926 13.8132 8.44268 13.4199C8.44609 13.0266 8.60385 12.6504 8.88196 12.3723C9.16007 12.0942 9.53629 11.9364 9.92958 11.933C10.3229 11.9296 10.7018 12.0808 10.9847 12.354L12.6667 14.036V5C12.6667 4.60218 12.8247 4.22064 13.106 3.93934C13.3873 3.65804 13.7689 3.5 14.1667 3.5Z" fill="white"/>
</g>
<defs>
<clipPath id="clip0_64_5807">
<rect width="28" height="28" fill="white"/>
</clipPath>
</defs>
</svg>
