<svg width="18" height="20" viewBox="0 0 18 20" fill="none" xmlns="http://www.w3.org/2000/svg">
<g clip-path="url(#clip0_64_6095)">
<rect width="18" height="20" rx="3.6031" fill="#0D99FF"/>
<path d="M14.25 11.7857C14.5057 11.7857 14.751 11.8986 14.9319 12.0995C15.1127 12.3005 15.2143 12.573 15.2143 12.8571V15.7143C15.2143 16.1879 15.045 16.6421 14.7436 16.977C14.4422 17.3119 14.0334 17.5 13.6071 17.5H4.60714C4.1809 17.5 3.77212 17.3119 3.47072 16.977C3.16932 16.6421 3 16.1879 3 15.7143V12.8571C3 12.573 3.10159 12.3005 3.28243 12.0995C3.46327 11.8986 3.70854 11.7857 3.96429 11.7857C4.22003 11.7857 4.4653 11.8986 4.64614 12.0995C4.82698 12.3005 4.92857 12.573 4.92857 12.8571V15.3571H13.2857V12.8571C13.2857 12.573 13.3873 12.3005 13.5681 12.0995C13.749 11.8986 13.9943 11.7857 14.25 11.7857ZM9.10714 2.5C9.36289 2.5 9.60816 2.61288 9.789 2.81381C9.96983 3.01475 10.0714 3.28727 10.0714 3.57143V10.0257L11.1527 8.82429C11.3351 8.63252 11.5776 8.52736 11.8287 8.53117C12.0798 8.53499 12.3196 8.64747 12.4972 8.84471C12.6748 9.04195 12.7761 9.30838 12.7797 9.58735C12.7832 9.86632 12.6887 10.1358 12.5162 10.3386L9.90236 13.2436C9.6914 13.4778 9.40537 13.6094 9.10714 13.6094C8.80891 13.6094 8.52288 13.4778 8.31193 13.2436L5.69807 10.3393C5.52242 10.1372 5.42522 9.86657 5.42742 9.58564C5.42962 9.30472 5.53103 9.03599 5.70982 8.83734C5.8886 8.63869 6.13046 8.52601 6.38329 8.52356C6.63612 8.52112 6.8797 8.62912 7.06157 8.82429L8.14286 10.0257V3.57143C8.14286 3.28727 8.24445 3.01475 8.42529 2.81381C8.60613 2.61288 8.8514 2.5 9.10714 2.5Z" fill="white"/>
</g>
<defs>
<clipPath id="clip0_64_6095">
<rect width="18" height="20" fill="white"/>
</clipPath>
</defs>
</svg>
