<svg width="18" height="18" viewBox="0 0 18 18" fill="none" xmlns="http://www.w3.org/2000/svg">
<path fill-rule="evenodd" clip-rule="evenodd" d="M6.25 2.58333C6.25 2.0971 6.44315 1.63079 6.78697 1.28697C7.13079 0.943154 7.5971 0.75 8.08333 0.75H9.91667C10.4029 0.75 10.8692 0.943154 11.213 1.28697C11.5568 1.63079 11.75 2.0971 11.75 2.58333V6.25H15.4167C15.9029 6.25 16.3692 6.44315 16.713 6.78697C17.0568 7.13079 17.25 7.5971 17.25 8.08333V9.91667C17.25 10.4029 17.0568 10.8692 16.713 11.213C16.3692 11.5568 15.9029 11.75 15.4167 11.75H11.75V15.4167C11.75 15.9029 11.5568 16.3692 11.213 16.713C10.8692 17.0568 10.4029 17.25 9.91667 17.25H8.08333C7.5971 17.25 7.13079 17.0568 6.78697 16.713C6.44315 16.3692 6.25 15.9029 6.25 15.4167V11.75H2.58333C2.0971 11.75 1.63079 11.5568 1.28697 11.213C0.943154 10.8692 0.75 10.4029 0.75 9.91667V8.08333C0.75 7.5971 0.943154 7.13079 1.28697 6.78697C1.63079 6.44315 2.0971 6.25 2.58333 6.25H6.25V2.58333Z" fill="#0FA958"/>
</svg>
