<svg width="112" height="74" viewBox="0 0 112 74" fill="none" xmlns="http://www.w3.org/2000/svg">
<path d="M12.3446 46.4554H17.4141V60.53C17.214 60.5967 16.8916 60.6523 16.4469 60.6968C16.0022 60.7635 15.5464 60.7968 15.0794 60.7968C14.0789 60.7968 13.3674 60.6189 12.9449 60.2632C12.5447 59.9074 12.3446 59.2849 12.3446 58.3955V46.4554ZM17.4141 52.859H12.3446V40.2853C12.5669 40.2408 12.9004 40.1852 13.3451 40.1185C13.8121 40.0518 14.2568 40.0185 14.6792 40.0185C15.6575 40.0185 16.3579 40.1852 16.7804 40.5187C17.2029 40.8523 17.4141 41.4859 17.4141 42.4198V52.859ZM24.7849 46.4554H29.8878V60.53C29.6654 60.5967 29.3319 60.6523 28.8872 60.6968C28.4425 60.7635 27.9867 60.7968 27.5198 60.7968C26.5192 60.7968 25.8077 60.6189 25.3852 60.2632C24.985 59.9074 24.7849 59.2849 24.7849 58.3955V46.4554ZM29.8878 52.859H24.7849V40.2853C25.0295 40.2408 25.3741 40.1852 25.8188 40.1185C26.2635 40.0518 26.7082 40.0185 27.1529 40.0185C28.109 40.0185 28.7983 40.1963 29.2207 40.5521C29.6654 40.8856 29.8878 41.5193 29.8878 42.4532V52.859ZM27.6865 52.4254H14.6459V48.3898H27.6865V52.4254Z" fill="#CA2B30"/>
<path d="M54.2671 50.4243C54.2671 52.7367 53.8113 54.6934 52.8997 56.2943C52.0103 57.873 50.7763 59.0736 49.1976 59.8963C47.6412 60.719 45.8735 61.1303 43.8946 61.1303C41.9157 61.1303 40.1481 60.719 38.5916 59.8963C37.0352 59.0736 35.8123 57.873 34.9229 56.2943C34.0335 54.6934 33.5888 52.7367 33.5888 50.4243C33.5888 48.1119 34.0446 46.1664 34.9563 44.5877C35.8679 42.9868 37.1019 41.7861 38.6583 40.9857C40.2148 40.163 41.9602 39.7516 43.8946 39.7516C45.8513 39.7516 47.6078 40.163 49.1643 40.9857C50.7429 41.7861 51.9881 42.9868 52.8997 44.5877C53.8113 46.1664 54.2671 48.1119 54.2671 50.4243ZM49.0308 50.4243C49.0308 48.2898 48.5639 46.6666 47.6301 45.5549C46.7184 44.4432 45.4733 43.8873 43.8946 43.8873C42.3827 43.8873 41.1597 44.4432 40.2259 45.5549C39.292 46.6444 38.8251 48.2675 38.8251 50.4243C38.8251 52.6033 39.2809 54.2487 40.1925 55.3604C41.1264 56.4499 42.3715 56.9947 43.928 56.9947C45.4844 56.9947 46.7184 56.4499 47.6301 55.3604C48.5639 54.2487 49.0308 52.6033 49.0308 50.4243Z" fill="#D68535"/>
<path d="M71.2522 55.5272C71.0076 55.7273 70.6741 55.8941 70.2516 56.0275C69.8514 56.1609 69.3845 56.2276 68.8509 56.2276C68.1616 56.2276 67.5835 56.1386 67.1165 55.9608C66.6496 55.7829 66.3494 55.4827 66.216 55.0603C65.4601 52.948 64.8152 51.1914 64.2816 49.7906C63.7702 48.3898 63.37 47.178 63.0809 46.1552H62.9142C62.8475 47.556 62.7919 48.8345 62.7474 49.9907C62.7029 51.1469 62.6696 52.2809 62.6474 53.3927C62.6251 54.4822 62.5918 55.5939 62.5473 56.7279C62.5028 57.8618 62.4361 59.107 62.3472 60.4633C62.1026 60.53 61.7691 60.6078 61.3466 60.6968C60.9464 60.7857 60.5462 60.8302 60.146 60.8302C59.301 60.8302 58.634 60.6856 58.1448 60.3966C57.6779 60.1075 57.4444 59.6073 57.4444 58.8957C57.4444 58.4066 57.4667 57.684 57.5111 56.7279C57.5778 55.7495 57.6445 54.6378 57.7112 53.3927C57.8002 52.1253 57.878 50.7912 57.9447 49.3904C58.0337 47.9896 58.1226 46.6111 58.2115 45.2547C58.3227 43.8762 58.4228 42.6088 58.5117 41.4526C58.6896 41.1858 59.0453 40.919 59.579 40.6521C60.1126 40.3631 60.8463 40.2186 61.7802 40.2186C62.7808 40.2186 63.5812 40.3853 64.1816 40.7188C64.8041 41.0301 65.2488 41.5526 65.5156 42.2864C65.8492 43.0868 66.2049 44.0207 66.5829 45.088C66.9609 46.133 67.3278 47.2003 67.6835 48.2898C68.0615 49.357 68.4062 50.3243 68.7174 51.1914H68.8842C69.5068 49.2348 70.1405 47.3226 70.7853 45.4548C71.4523 43.5871 72.0193 42.0307 72.4862 40.7856C72.7975 40.6077 73.1866 40.4743 73.6536 40.3853C74.1427 40.2742 74.6541 40.2186 75.1878 40.2186C76.1439 40.2186 76.9109 40.3631 77.4891 40.6521C78.0894 40.919 78.4451 41.3303 78.5563 41.8862C78.6453 42.3086 78.7342 42.9757 78.8231 43.8873C78.9343 44.7989 79.0455 45.8551 79.1567 47.0557C79.2678 48.2342 79.379 49.4793 79.4902 50.7912C79.6014 52.0808 79.7014 53.3482 79.7903 54.5933C79.9015 55.8162 79.9905 56.9169 80.0572 57.8952C80.1239 58.8735 80.1683 59.6517 80.1906 60.2298C79.8571 60.4299 79.5013 60.5745 79.1233 60.6634C78.7675 60.7746 78.3117 60.8302 77.7559 60.8302C77.0444 60.8302 76.4329 60.6968 75.9215 60.4299C75.4323 60.1631 75.1655 59.6517 75.1211 58.8957C75.0099 57.1614 74.9209 55.5161 74.8542 53.9596C74.7875 52.381 74.7319 50.9468 74.6875 49.6572C74.6652 48.3454 74.6319 47.2225 74.5874 46.2886H74.4207C74.1316 47.2447 73.7203 48.4565 73.1866 49.924C72.6752 51.3693 72.0304 53.237 71.2522 55.5272Z" fill="#AECE28"/>
<path d="M84.3252 46.4221H89.2613V60.3632C89.0612 60.4077 88.7499 60.4633 88.3274 60.53C87.9272 60.5967 87.4936 60.6301 87.0267 60.6301C86.204 60.6301 85.5481 60.3855 85.0589 59.8963C84.5698 59.4071 84.3252 58.7512 84.3252 57.9285V46.4221ZM89.2613 54.4933H84.3252V43.0535C84.3252 42.2086 84.5698 41.5526 85.0589 41.0857C85.5481 40.5966 86.204 40.352 87.0267 40.352C87.4936 40.352 87.9272 40.3853 88.3274 40.452C88.7499 40.5187 89.0612 40.5743 89.2613 40.6188V54.4933ZM87.0267 52.2587V48.2564H97.0991C97.2325 48.4788 97.3548 48.7567 97.4659 49.0902C97.5771 49.4237 97.6327 49.7906 97.6327 50.1908C97.6327 50.9024 97.4659 51.4249 97.1324 51.7584C96.8211 52.0919 96.3987 52.2587 95.865 52.2587H87.0267ZM87.0267 60.6301V56.5945H98.1997C98.3331 56.7946 98.4554 57.0725 98.5665 57.4283C98.6777 57.784 98.7333 58.162 98.7333 58.5622C98.7333 59.2737 98.5665 59.7963 98.233 60.1298C97.9217 60.4633 97.4993 60.6301 96.9656 60.6301H87.0267ZM87.0267 44.3542V40.352H98.0329C98.1886 40.5521 98.3108 40.8189 98.3998 41.1524C98.511 41.4859 98.5665 41.8528 98.5665 42.253C98.5665 42.9646 98.4109 43.4982 98.0996 43.8539C97.7883 44.1875 97.3548 44.3542 96.7989 44.3542H87.0267Z" fill="#CA2373"/>
<path d="M6.58936 38.0422L10.2293 35.8375M105.343 38.0422L101.442 35.8375M10.2293 35.8375L55.7095 9.38025L101.442 35.8375M10.2293 35.8375H101.442" stroke="#2388DE" stroke-width="2.76598" stroke-linecap="round"/>
<path d="M46.4556 52.3733H41.5049C41.5049 54.4578 42.8077 54.9789 43.85 54.9789C44.8922 54.9789 46.4556 54.7184 46.4556 52.3733Z" fill="#D68535" stroke="#D68535" stroke-width="1.04225" stroke-linecap="round"/>
<circle cx="41.7654" cy="47.9436" r="1.04225" fill="#D68535"/>
<circle cx="45.9343" cy="47.9436" r="1.04225" fill="#D68535"/>
</svg>
